<svg preserveAspectRatio="none" overflow="visible" style="display: block;" width="127.855" height="74.7602" viewBox="0 0 127.855 74.7602" fill="none" xmlns="http://www.w3.org/2000/svg">
<path id="Vector" d="M123.926 7.60194C124.673 5.71309 126 2.50004 126 2.50004L126.355 1.79685C125.771 1.67452 118.771 1.24683 115.007 1.71194C112.867 1.97628 111.566 2.96379 110.281 3.67943C108.997 4.39471 106.41 5.23729 102.005 5.6244C96.032 6.14922 93.8516 4.74938 91.0626 4.43651C86.6097 3.93698 79.8034 3.64573 78.3777 4.60417C76.894 5.6016 75.4475 6.47908 73.5182 6.82001C68.8752 7.64045 66.4932 5.72328 64.3924 5.24568C62.6069 4.83977 60.6332 4.23494 59.0129 3.66504C55.0622 2.27542 48.2331 2.81987 45.6796 2.82039C43.5759 2.82081 40.8484 4.01301 38.4171 5.24944C37.2225 5.85698 36.0159 6.14827 35.1436 6.51239C34.3288 6.85251 28.3973 6.406 19.9394 5.76165C15.6358 5.4338 12.3387 4.50004 9.80252 3.99105C8.24589 3.67866 5.83535 4.40327 4 5.00004C2.16465 5.59681 1.49985 6.19021 1.5 7.00004C2.1488 8.4885 3.13459 11.5691 3.88542 13.6198C4.63095 15.656 5.53669 17.5242 6.86459 18.7266C8.40477 20.1213 9.70612 22.2898 11.0804 24.0374C12.3691 25.6762 13.6496 26.7668 14.8497 28.0056C16.2441 29.445 17.8129 30.8446 20.1116 32.9696C22.0953 34.8034 23.6753 36.194 25.5164 37.9783C26.9524 39.37 27.7806 41.0729 29.2367 42.8931C31.0239 45.1273 32.7473 46.1546 34.2471 47.6547C35.9822 49.3902 37.3645 50.3828 38.6593 51.7718C39.9524 53.159 41.8629 55.6395 44.067 57.2775C45.6072 58.4222 46.9688 59.819 48.1846 61.149C49.7739 62.8875 51.1458 64.2674 52.3513 65.5638C53.7382 67.0552 55.9452 68.2364 57.3268 69.2127C59.0202 70.4094 60.7854 73.6151 63.0827 73.227C63.9726 73.0767 64.7405 72.1895 65.5549 71.5786C67.2029 70.3422 67.3106 70.2459 68.3215 68.6791C69.3156 67.1386 70.4827 66.3034 72.5592 64.5726C75.0313 62.512 75.8554 61.149 77.5034 59.6271L77.551 59.5832L77.5511 59.5831C79.0121 58.234 81.2788 56.1408 82.8256 54.9542C84.5116 53.6607 85.9299 50.6215 89.5597 46.9909C92.5418 44.008 95.518 41.7245 96.9942 40.4C98.3811 39.1556 99.9575 38.173 101.159 36.8768C102.453 35.4822 103.803 33.5223 105.078 32.1123C106.423 30.6238 108.403 28.6398 110.14 27.0024C111.774 25.4619 112.766 24.0874 114.057 22.9345C115.447 21.6931 117.008 20.3692 118.273 18.17C119.214 16.5312 120.206 14.5486 121.347 12.2653C122.191 10.5774 123.263 9.27665 123.926 7.60194Z" fill="#3F93AE" stroke="#111111" stroke-width="3" stroke-linecap="round" stroke-linejoin="round"/>
</svg>
