<svg preserveAspectRatio="none" overflow="visible" style="display: block;" width="392" height="359" viewBox="0 0 392 359" fill="none" xmlns="http://www.w3.org/2000/svg">
<path id="Vector 59" d="M356.616 5.45421C363.164 3.80414 384.719 3.75924 390.5 6.16441V357.5H1.5V8.05475H2.9975C9.05696 8.52468 15.599 9.73088 21.6319 11.8284C26.3982 13.4855 37.8167 18.5239 46.6927 17.5912C52.2748 17.0047 56.771 16.6907 61.0559 14.761C66.0538 12.5103 70.9415 9.54341 74.7066 8.04769C78.8781 6.39054 83.5893 4.38779 92.7675 3.10453C97.8723 2.39079 114.613 0.603036 127.325 2.04806C134.692 2.88546 141.428 4.39981 146.198 5.94181C152.746 8.05829 160.609 11.2609 169.717 12.8919C180.845 14.8847 194.092 15.0589 202.604 14.0579C207.591 13.4714 211.817 12.3393 217.683 11.3478C223.265 10.4044 227.464 8.69454 232.52 7.81449C236.56 7.11134 241.081 7.91574 246.652 6.16441C248.9 5.45774 265.845 4.19798 289.588 5.11147C298.772 5.4648 300.768 5.70593 303.303 6.76861C310.898 9.95216 316.542 12.477 321.1 13.595C326.358 14.8847 333.641 15.0388 338.082 13.3477C342.731 11.5775 347.428 7.76978 356.616 5.45421Z" fill="#D3E2E8" stroke="#A9B7C0" stroke-width="3" stroke-linecap="round" stroke-linejoin="round"/>
</svg>
